PathFileType	4	(X/Y/Z)	c:/Users/goper/Files/vsCode/490R/osim_files/C07/C07_Fast_07.trc
DataRate	CameraRate	NumFrames	NumMarkers	Units                	OrigDataRate	OrigDataStartFrame	OrigNumFrames
250.00	250.00	9	36	mm	250.0	1134	2266
                Frame#	Time	LPSIS			LASIS			LTH1			LTH2			LTH3			LTH4			LLFE			LMFE			LSH1			LSH2			LSH3			LSH4			LLMAL			LMMAL			LCAL			LMTP5			LTOE			LMTP1			RPSIS			RASIS			RTH1			RTH2			RTH3			RTH4			RLFE			RMFE			RSH1			RSH2			RSH3			RSH4			RLMAL			RMMAL			RCAL			RMTP1			RTOE			RMTP5		
		X1	Y1	Z1	X2	Y2	Z2	X3	Y3	Z3	X4	Y4	Z4	X5	Y5	Z5	X6	Y6	Z6	X7	Y7	Z7	X8	Y8	Z8	X9	Y9	Z9	X10	Y10	Z10	X11	Y11	Z11	X12	Y12	Z12	X13	Y13	Z13	X14	Y14	Z14	X15	Y15	Z15	X16	Y16	Z16	X17	Y17	Z17	X18	Y18	Z18	X19	Y19	Z19	X20	Y20	Z20	X21	Y21	Z21	X22	Y22	Z22	X23	Y23	Z23	X24	Y24	Z24	X25	Y25	Z25	X26	Y26	Z26	X27	Y27	Z27	X28	Y28	Z28	X29	Y29	Z29	X30	Y30	Z30	X31	Y31	Z31	X32	Y32	Z32	X33	Y33	Z33	X34	Y34	Z34	X35	Y35	Z35	X36	Y36	Z36

1134	4.53200	-1631.83728	991.69720	283.53909	-1801.49792	971.62848	358.70880	-1785.32983	765.65759	400.56073	-1817.66711	693.46716	400.38504	-1849.82898	625.66742	389.84485	-1889.85181	728.55756	381.48843	0.00000	0.00000	0.00000	-1869.23975	500.69763	248.30788	-1737.14160	410.15106	387.27145	0.00000	0.00000	0.00000	-1767.19055	383.66821	375.79587	-1731.15332	355.21445	372.68314	-1556.19446	277.25409	348.10489	-1587.73621	263.58310	276.28046	-1475.14624	289.25348	302.16907	-1559.22705	128.93341	378.54562	-1596.64880	84.84772	323.99814	-1565.85327	101.14178	273.87799	-1634.26392	1005.88580	183.17328	-1795.22949	978.71179	105.61230	-1771.74365	820.54163	49.94859	-1783.65051	742.44269	56.27302	-1793.33044	661.70209	68.70295	-1852.27271	755.39099	91.84557	-1802.35559	486.95804	110.38447	-1793.57642	502.02368	222.15129	-1719.38757	312.09717	110.23090	-1741.97766	260.20334	110.92814	-1780.17322	306.09396	112.00803	-1770.53088	264.58762	116.65396	-1689.61743	96.69814	166.02907	-1722.99963	106.22967	242.78494	-1639.13220	46.79797	220.62393	-1851.16174	36.32662	227.15964	-1870.79797	48.20969	175.28423	-1816.24609	36.08956	121.48045
1135	4.53600	-1636.67236	992.76141	283.59470	-1806.53137	973.12634	358.02579	-1792.07092	767.23529	400.16013	-1824.74854	695.19531	399.91681	-1857.65894	627.72974	389.14655	-1897.27014	731.10345	380.47266	0.00000	0.00000	0.00000	-1877.38818	503.30658	247.31487	-1746.89392	410.46338	386.24850	0.00000	0.00000	0.00000	-1777.52673	384.43777	374.63901	-1742.86548	355.76334	372.17920	-1567.83521	274.96371	347.35388	-1599.64502	261.97552	275.58252	-1486.27856	285.09399	301.55728	-1574.26404	127.10773	378.16934	-1613.05359	84.14622	323.71317	-1581.67493	99.42371	273.60287	-1639.25769	1006.49884	183.35669	-1799.45093	979.33289	104.96331	-1774.37109	821.00574	49.67485	-1785.85413	742.76868	56.01463	-1794.94458	662.03906	68.47044	-1856.29614	755.49341	90.93848	-1802.64978	487.18198	110.29771	-1794.29211	502.12753	222.07504	-1719.43933	312.47076	110.29871	-1741.88318	260.58270	110.90940	-1780.15356	306.35611	111.88560	-1770.52612	264.84607	116.57762	-1689.69250	96.96487	166.11064	-1723.06311	106.37239	242.86357	-1639.18787	46.96416	220.62982	-1851.10925	36.27221	227.13164	-1870.78040	48.20408	175.25294	-1816.23071	36.12018	121.46983
1136	4.54000	-1641.48254	993.98157	283.89417	-1811.73718	974.53247	357.25867	-1797.65698	768.46893	399.69040	0.00000	0.00000	0.00000	-1865.68579	629.92395	388.27185	-1903.58765	733.33234	379.68381	0.00000	0.00000	0.00000	-1885.59009	505.88272	246.31496	-1756.68066	410.65744	385.22491	0.00000	0.00000	0.00000	-1787.68201	385.20645	373.44986	-1752.48621	355.54044	370.49875	-1579.53577	272.71021	346.53159	-1611.56458	260.31934	274.89978	-1497.39551	280.77628	300.79520	-1589.44812	125.20801	377.80188	-1630.00085	83.48651	323.57626	-1597.65967	97.46243	273.26843	-1643.23877	1007.67963	183.26736	-1803.52136	979.79822	104.40077	-1777.64331	821.48199	49.48642	-1788.03455	743.07172	55.77684	-1796.92139	662.32959	68.32030	-1858.70581	755.19470	90.35387	-1803.07690	487.33713	110.22943	-1795.22607	502.23380	222.04192	-1719.52441	312.79877	110.37451	-1741.85840	260.85788	110.96002	-1780.22461	306.58231	111.82751	-1770.51733	265.04398	116.54453	-1689.75708	97.24419	166.20856	-1723.18591	106.49963	242.95985	-1639.24268	47.09847	220.65845	-1851.13745	36.23236	227.14366	-1870.78528	48.18732	175.27098	-1816.26465	36.13642	121.49005
1137	4.54400	-1646.30713	995.06964	284.03995	-1816.73413	975.89001	356.56485	0.00000	0.00000	0.00000	0.00000	0.00000	0.00000	-1873.32092	632.06750	387.62106	-1910.37207	735.78723	378.76776	0.00000	0.00000	0.00000	-1893.49780	508.35446	245.36401	-1766.50134	410.76736	384.20993	0.00000	0.00000	0.00000	-1797.86975	385.90851	372.39493	-1763.13330	355.65442	369.44489	-1591.39612	270.35944	345.83557	-1623.83472	258.45557	274.16476	-1508.87366	276.26056	299.99261	-1604.78052	123.30083	377.30585	-1646.40564	82.41543	323.26312	-1613.93372	95.57378	272.96783	-1648.25098	1008.33386	183.51842	-1807.66382	980.27142	103.78056	-1780.45911	821.88953	49.35653	-1790.65186	743.36047	55.75217	-1798.20996	662.48138	68.23219	-1861.16211	754.94604	89.69208	-1803.28735	487.48990	110.24743	-1796.91882	502.29633	221.84399	-1719.71655	313.11581	110.36575	-1741.83154	261.12259	110.98547	-1780.35339	306.81577	111.84265	-1770.57776	265.24460	116.56149	-1689.81982	97.51284	166.33762	-1723.77930	106.62438	243.31308	-1639.29468	47.31503	220.71178	-1851.17078	36.18808	227.15936	-1870.81677	48.16618	175.29254	-1816.30774	36.16252	121.51263
1138	4.54800	-1651.19141	996.17505	284.30960	-1821.75244	977.26105	355.86023	0.00000	0.00000	0.00000	-1846.09351	700.86316	398.24365	-1881.19373	634.15216	386.89304	-1917.07227	738.17773	377.83945	0.00000	0.00000	0.00000	-1901.44202	510.72415	244.51283	-1776.25879	410.77280	383.28998	0.00000	0.00000	0.00000	-1808.23572	386.52707	371.36206	-1773.87793	355.65176	368.34836	-1603.37134	267.61926	345.02252	-1635.72461	256.41217	273.26157	-1520.33337	271.45618	299.12381	-1620.27771	121.24510	376.89502	-1662.85059	81.34370	322.95148	-1630.04468	93.60762	272.55112	-1652.81970	1009.13446	183.59564	-1811.70203	980.57544	103.17385	-1783.21423	822.25543	49.15312	-1793.41516	743.54388	55.61742	0.00000	0.00000	0.00000	-1862.20398	754.45349	89.32903	-1803.49902	487.63412	110.31441	-1797.89099	502.43579	221.80153	-1719.83948	313.37552	110.41659	-1741.89087	261.32343	111.00675	-1780.53088	306.97769	111.86245	-1770.45325	265.44678	116.73140	-1689.89563	97.75513	166.46861	-1723.87354	106.70418	243.47032	-1640.08899	47.15226	221.24384	-1851.22449	36.15656	227.19853	-1870.78748	48.11152	175.31480	-1816.33533	36.17744	121.55487
1139	4.55200	-1655.98401	997.23370	284.52612	-1827.01355	978.59106	355.12082	0.00000	0.00000	0.00000	0.00000	0.00000	0.00000	-1888.75891	636.24341	386.16458	-1923.78381	740.60193	376.96826	0.00000	0.00000	0.00000	-1909.18762	513.11450	243.69379	-1785.96008	410.65912	382.36130	0.00000	0.00000	0.00000	-1818.24414	386.99411	370.27112	-1784.55701	355.56262	367.42059	-1615.24939	264.71457	344.07571	-1648.09473	254.09547	272.49170	-1532.01306	266.48029	298.16513	-1635.80005	119.17450	376.34171	-1679.61707	80.34616	322.52371	-1646.53906	91.56722	272.21521	-1657.23792	1009.99829	183.70589	-1815.77686	980.86340	102.54742	-1785.98328	822.57617	49.05381	-1795.54065	743.82965	55.52651	0.00000	0.00000	0.00000	-1866.27063	754.50391	88.50366	-1803.73535	487.79453	110.42027	-1798.86609	502.67007	221.85649	-1720.04199	313.62091	110.45762	-1742.03186	261.57086	111.05984	-1780.72937	307.12720	111.95042	-1770.85010	265.59827	116.72320	-1689.98010	98.01524	166.59126	-1724.00195	106.85270	243.61861	-1641.13159	46.79235	221.90819	-1851.23962	36.12158	227.21916	-1870.78882	48.06630	175.31036	-1816.38953	36.20832	121.59805
1140	4.55600	-1660.77246	998.31335	284.64456	-1831.93384	979.78229	354.47900	0.00000	0.00000	0.00000	0.00000	0.00000	0.00000	-1896.51831	638.29694	385.51596	-1930.41028	742.85181	376.09308	0.00000	0.00000	0.00000	-1916.72705	515.34894	242.92088	-1795.49548	410.46811	381.36807	0.00000	0.00000	0.00000	-1828.19250	387.46198	369.29025	-1795.11975	355.43561	366.39676	-1627.16614	261.76785	343.03360	-1660.45422	251.72600	271.62338	-1543.74683	261.27661	297.17032	-1651.66016	117.21276	375.73572	-1696.45386	79.28540	322.16116	-1663.02625	89.39318	271.69955	-1661.08777	1011.05652	183.53061	-1819.77820	981.16022	101.97281	-1788.69910	822.80151	48.95292	-1797.10547	743.95789	55.20857	0.00000	0.00000	0.00000	-1867.21094	753.85992	87.97507	-1803.97827	487.95428	110.57462	-1799.74988	502.74448	221.84995	-1720.11792	313.66528	110.44576	-1742.24036	261.71899	111.15370	-1781.02466	307.31342	112.09039	-1771.08337	265.76071	116.88731	-1690.09448	98.23445	166.74564	-1724.11792	106.95644	243.77367	-1639.07336	47.99441	220.82588	-1851.26428	36.05961	227.24030	-1870.93750	48.17900	175.38104	-1816.39062	36.19726	121.64555
1141	4.56000	-1665.50403	999.34161	284.83261	-1836.97742	980.90338	353.72745	0.00000	0.00000	0.00000	0.00000	0.00000	0.00000	-1903.85852	640.29749	384.83313	-1936.97656	745.15607	375.13693	0.00000	0.00000	0.00000	-1924.22278	517.42792	242.13962	-1804.99597	410.12793	380.39804	0.00000	0.00000	0.00000	-1838.19556	387.73431	368.37451	-1805.76355	355.18823	365.41312	-1639.22876	258.61472	341.91385	-1672.87585	249.28673	270.65707	-1555.64587	255.96654	296.06036	-1667.75720	115.38417	375.13522	-1713.27246	78.24834	321.62366	-1679.50562	87.26334	271.13614	-1665.43884	1011.74109	183.57083	-1823.72803	981.35632	101.33776	-1791.34192	823.05237	48.79613	-1799.10168	744.12317	55.16024	-1804.26184	663.28955	67.95624	-1868.98938	753.48016	87.72638	-1804.13721	488.12170	110.69592	-1800.49719	502.84009	221.87856	-1720.29663	313.86783	110.43880	-1742.52222	261.86499	111.31275	-1781.27576	307.47629	112.21207	-1771.32690	265.90897	117.06642	-1690.18665	98.45047	166.88042	-1724.20496	107.07000	243.90677	-1639.00879	48.19381	220.80682	-1851.27393	36.03627	227.29692	-1870.91382	48.09032	175.39723	-1816.41443	36.21504	121.68098
1142	4.56400	-1670.23523	1000.23547	284.97696	-1842.07166	982.06677	353.06802	0.00000	0.00000	0.00000	0.00000	0.00000	0.00000	-1911.33374	642.35187	384.13092	-1943.49829	747.29211	374.31876	0.00000	0.00000	0.00000	-1931.59509	519.56989	241.33504	-1814.36951	409.71881	379.45969	0.00000	0.00000	0.00000	-1848.08887	388.13190	367.36310	-1816.29089	354.88251	364.36856	-1651.28735	255.28201	340.74548	-1685.19690	246.65709	269.60144	-1567.70398	250.45332	294.84793	-1683.97217	113.51831	374.39133	-1730.66809	77.56635	321.31146	-1696.11682	85.04523	270.53140	-1670.39417	1012.02356	183.86996	-1827.72656	981.55695	100.71246	-1794.49963	823.27716	48.94994	-1801.23682	744.31781	55.05423	0.00000	0.00000	0.00000	-1871.20276	753.25397	87.26137	-1804.35437	488.25812	110.81820	-1801.39111	502.98138	221.91284	-1720.45129	314.09323	110.40072	-1742.91614	261.93143	111.52197	-1781.48071	307.60983	112.33666	-1771.55176	266.04083	117.21706	-1690.36206	98.60395	167.03955	-1724.31921	107.21017	244.11885	-1639.05542	48.35653	220.80937	-1851.29431	36.01771	227.29756	-1870.90491	48.02976	175.39584	-1816.41882	36.19480	121.71464
